<?xml version="1.0" encoding="UTF-8"?>
<svg width="200" height="200" viewBox="0 0 200 200" fill="none" xmlns="http://www.w3.org/2000/svg">
  <!-- Fundo com gradiente dourado -->
  <circle cx="100" cy="100" r="95" fill="url(#gradient)" />
  
  <!-- Livro -->
  <path d="M60 60 L 140 60 L 140 140 L 60 140 Z" fill="#FFE4C4" />
  
  <!-- Páginas animadas -->
  <path d="M70 70 L 130 70 L 130 130 L 70 130 Z" fill="#FFF8DC">
    <animate attributeName="fill" 
             values="#FFF8DC;#FFFAF0;#FFF8DC" 
             dur="3s" 
             repeatCount="indefinite" />
  </path>
  
  <!-- Cruz na capa -->
  <path d="M90 80 L 110 80 L 110 120 L 90 120 Z" fill="#8B4513">
    <animate attributeName="fill" 
             values="#8B4513;#A0522D;#8B4513" 
             dur="4s" 
             repeatCount="indefinite" />
  </path>
  <path d="M80 90 L 120 90 L 120 110 L 80 110 Z" fill="#8B4513">
    <animate attributeName="fill" 
             values="#8B4513;#A0522D;#8B4513" 
             dur="4s" 
             repeatCount="indefinite" />
  </path>
  
  <!-- Marcador de página -->
  <path d="M140 80 L 150 80 L 150 120 L 140 120 Z" fill="#FFD700">
    <animate attributeName="fill" 
             values="#FFD700;#FFA500;#FFD700" 
             dur="3s" 
             repeatCount="indefinite" />
  </path>
  
  <!-- Gradientes e definições -->
  <defs>
    <linearGradient id="gradient" x1="0" y1="0" x2="200" y2="200" gradientUnits="userSpaceOnUse">
      <stop offset="0%" stop-color="#FFD700" />
      <stop offset="100%" stop-color="#DAA520" />
    </linearGradient>
  </defs>
  
  <!-- Efeito de luz divina -->
  <circle cx="100" cy="100" r="95" fill="url(#shine)" opacity="0.2">
    <animate attributeName="opacity" values="0.2;0.4;0.2" dur="3s" repeatCount="indefinite" />
  </circle>
  
  <defs>
    <radialGradient id="shine" cx="30%" cy="30%" r="70%">
      <stop offset="0%" stop-color="white" />
      <stop offset="100%" stop-color="transparent" />
    </radialGradient>
  </defs>
  
  <!-- Estrelas -->
  <circle cx="80" cy="35" r="2" fill="#FFD700">
    <animate attributeName="opacity" values="0.6;1;0.6" dur="2s" repeatCount="indefinite" />
  </circle>
  <circle cx="100" cy="30" r="2" fill="#FFD700">
    <animate attributeName="opacity" values="0.6;1;0.6" dur="2.5s" repeatCount="indefinite" />
  </circle>
  <circle cx="120" cy="35" r="2" fill="#FFD700">
    <animate attributeName="opacity" values="0.6;1;0.6" dur="3s" repeatCount="indefinite" />
  </circle>
</svg> 