<?xml version="1.0" encoding="UTF-8"?>
<svg width="200" height="200" viewBox="0 0 200 200" fill="none" xmlns="http://www.w3.org/2000/svg">
  <!-- Fundo com gradiente real -->
  <circle cx="100" cy="100" r="95" fill="url(#gradient)" />
  
  <!-- Rosto de Davi -->
  <path d="M100 50 C 70 50, 60 100, 100 120 C 140 100, 130 50, 100 50" fill="#FFE4C4" />
  
  <!-- Cabelo jovem e ondulado -->
  <path d="M100 40 C 60 40, 40 70, 60 100 C 80 120, 120 120, 140 100 C 160 70, 140 40, 100 40" fill="#2F1B1B">
    <animate attributeName="d" 
             values="M100 40 C 60 40, 40 70, 60 100 C 80 120, 120 120, 140 100 C 160 70, 140 40, 100 40;
                     M100 40 C 65 40, 45 70, 65 100 C 85 120, 115 120, 135 100 C 155 70, 135 40, 100 40;
                     M100 40 C 60 40, 40 70, 60 100 C 80 120, 120 120, 140 100 C 160 70, 140 40, 100 40"
             dur="4s"
             repeatCount="indefinite" />
  </path>
  
  <!-- Olhos determinados -->
  <circle cx="85" cy="80" r="3" fill="#4A4A4A">
    <animate attributeName="r" values="3;3.5;3" dur="3s" repeatCount="indefinite" />
  </circle>
  <circle cx="115" cy="80" r="3" fill="#4A4A4A">
    <animate attributeName="r" values="3;3.5;3" dur="3s" repeatCount="indefinite" />
  </circle>
  
  <!-- Brilho nos olhos -->
  <circle cx="86" cy="79" r="1" fill="white" opacity="0.8">
    <animate attributeName="opacity" values="0.8;1;0.8" dur="2s" repeatCount="indefinite" />
  </circle>
  <circle cx="116" cy="79" r="1" fill="white" opacity="0.8">
    <animate attributeName="opacity" values="0.8;1;0.8" dur="2s" repeatCount="indefinite" />
  </circle>
  
  <!-- Sobrancelhas expressivas -->
  <path d="M75 75 C 80 73, 90 73, 95 75" stroke="#2F1B1B" stroke-width="2" fill="none" />
  <path d="M105 75 C 110 73, 120 73, 125 75" stroke="#2F1B1B" stroke-width="2" fill="none" />
  
  <!-- Sorriso confiante -->
  <path d="M90 95 C 100 100, 110 100, 120 95" stroke="#2F1B1B" stroke-width="2" fill="none" />
  
  <!-- Coroa real babilônica -->
  <path d="M70 45 L130 45 L140 35 L100 25 L60 35 L70 45" fill="url(#coroa)">
    <animate attributeName="fill" 
             values="url(#coroa);url(#coroa-brilho);url(#coroa)" 
             dur="3s" 
             repeatCount="indefinite" />
  </path>
  
  <!-- Gradientes e definições -->
  <defs>
    <linearGradient id="gradient" x1="0" y1="0" x2="200" y2="200" gradientUnits="userSpaceOnUse">
      <stop offset="0%" stop-color="#4B0082" />
      <stop offset="100%" stop-color="#800080" />
    </linearGradient>
    
    <linearGradient id="coroa" x1="0" y1="0" x2="1" y2="1">
      <stop offset="0%" stop-color="#FFD700" />
      <stop offset="100%" stop-color="#DAA520" />
    </linearGradient>
    
    <linearGradient id="coroa-brilho" x1="0" y1="0" x2="1" y2="1">
      <stop offset="0%" stop-color="#FFF8DC" />
      <stop offset="100%" stop-color="#FFD700" />
    </linearGradient>
  </defs>
  
  <!-- Efeito de luz divina -->
  <circle cx="100" cy="100" r="95" fill="url(#shine)" opacity="0.2">
    <animate attributeName="opacity" values="0.2;0.4;0.2" dur="3s" repeatCount="indefinite" />
  </circle>
  
  <defs>
    <radialGradient id="shine" cx="30%" cy="30%" r="70%">
      <stop offset="0%" stop-color="white" />
      <stop offset="100%" stop-color="transparent" />
    </radialGradient>
  </defs>
  
  <!-- Leões (silhuetas) -->
  <path d="M40 160 C 45 155, 50 150, 55 155" stroke="#DAA520" stroke-width="1" opacity="0.6">
    <animate attributeName="opacity" values="0.6;0.3;0.6" dur="2s" repeatCount="indefinite" />
  </path>
  <path d="M160 160 C 155 155, 150 150, 145 155" stroke="#DAA520" stroke-width="1" opacity="0.6">
    <animate attributeName="opacity" values="0.6;0.3;0.6" dur="2.5s" repeatCount="indefinite" />
  </path>
</svg> 