<?xml version="1.0" encoding="UTF-8"?>
<svg xmlns="http://www.w3.org/2000/svg" viewBox="0 0 64 64">
  <!-- Círculo de fundo -->
  <circle cx="32" cy="32" r="32" fill="#E3F2FD"/>
  
  <!-- Rosto -->
  <circle cx="32" cy="30" r="20" fill="#FFE0B2"/>
  
  <!-- Barba profética -->
  <path fill="#8D6E63" d="M20 30c0 0 2 20 12 20s12-20 12-20c0 0-4 15-12 15s-12-15-12-15z"/>
  
  <!-- Cabelo -->
  <path fill="#8D6E63" d="M32 10c-12 0-20 8-20 20 0 0 4-10 20-10s20 10 20 10c0-12-8-20-20-20z"/>
  
  <!-- Olhos proféticos -->
  <circle cx="26" cy="26" r="2" fill="#4A4A4A"/>
  <circle cx="38" cy="26" r="2" fill="#4A4A4A"/>
  
  <!-- Sobrancelhas expressivas -->
  <path fill="#8D6E63" d="M24 22c0 0 4-2 6 0M36 22c0 0 4-2 6 0"/>
  
  <!-- Sorriso profético -->
  <path fill="none" stroke="#4A4A4A" stroke-width="1.5" d="M26 32c0 0 3 4 12 0" stroke-linecap="round"/>
  
  <!-- Brilho nos olhos -->
  <circle cx="25" cy="25" r="0.5" fill="white"/>
  <circle cx="37" cy="25" r="0.5" fill="white"/>
  
  <!-- Rugas de expressão -->
  <path fill="none" stroke="#4A4A4A" stroke-width="0.5" d="M28 28c0 0 2-1 8-1" opacity="0.5"/>
  
  <!-- Pergaminho profético -->
  <path fill="none" stroke="#8B4513" stroke-width="1" d="M16 40l32 0" opacity="0.3"/>
  <path fill="none" stroke="#8B4513" stroke-width="1" d="M16 44l32 0" opacity="0.3"/>
  <path fill="none" stroke="#8B4513" stroke-width="1" d="M16 48l32 0" opacity="0.3"/>
</svg> 