<?xml version="1.0" encoding="UTF-8"?>
<svg width="200" height="200" viewBox="0 0 200 200" fill="none" xmlns="http://www.w3.org/2000/svg">
  <!-- Fundo com gradiente celestial -->
  <circle cx="100" cy="100" r="95" fill="url(#gradient)" />
  
  <!-- Rosto de Jesus -->
  <path d="M100 50 C 70 50, 60 100, 100 120 C 140 100, 130 50, 100 50" fill="#FFE4C4" />
  
  <!-- Cabelo ondulado -->
  <path d="M100 40 C 60 40, 40 70, 60 100 C 80 120, 120 120, 140 100 C 160 70, 140 40, 100 40" fill="#2F1B1B">
    <animate attributeName="d" 
             values="M100 40 C 60 40, 40 70, 60 100 C 80 120, 120 120, 140 100 C 160 70, 140 40, 100 40;
                     M100 40 C 65 40, 45 70, 65 100 C 85 120, 115 120, 135 100 C 155 70, 135 40, 100 40;
                     M100 40 C 60 40, 40 70, 60 100 C 80 120, 120 120, 140 100 C 160 70, 140 40, 100 40"
             dur="4s"
             repeatCount="indefinite" />
  </path>
  
  <!-- Olhos amorosos -->
  <circle cx="85" cy="80" r="3" fill="#4A4A4A">
    <animate attributeName="r" values="3;3.5;3" dur="3s" repeatCount="indefinite" />
  </circle>
  <circle cx="115" cy="80" r="3" fill="#4A4A4A">
    <animate attributeName="r" values="3;3.5;3" dur="3s" repeatCount="indefinite" />
  </circle>
  
  <!-- Brilho nos olhos -->
  <circle cx="86" cy="79" r="1" fill="white" opacity="0.8">
    <animate attributeName="opacity" values="0.8;1;0.8" dur="2s" repeatCount="indefinite" />
  </circle>
  <circle cx="116" cy="79" r="1" fill="white" opacity="0.8">
    <animate attributeName="opacity" values="0.8;1;0.8" dur="2s" repeatCount="indefinite" />
  </circle>
  
  <!-- Sobrancelhas expressivas -->
  <path d="M75 75 C 80 73, 90 73, 95 75" stroke="#2F1B1B" stroke-width="2" fill="none" />
  <path d="M105 75 C 110 73, 120 73, 125 75" stroke="#2F1B1B" stroke-width="2" fill="none" />
  
  <!-- Sorriso gentil -->
  <path d="M90 95 C 100 100, 110 100, 120 95" stroke="#2F1B1B" stroke-width="2" fill="none" />
  
  <!-- Halo de luz -->
  <circle cx="100" cy="30" r="15" fill="url(#halo)" opacity="0.6">
    <animate attributeName="opacity" values="0.6;0.9;0.6" dur="3s" repeatCount="indefinite" />
  </circle>
  
  <!-- Gradientes e definições -->
  <defs>
    <linearGradient id="gradient" x1="0" y1="0" x2="200" y2="200" gradientUnits="userSpaceOnUse">
      <stop offset="0%" stop-color="#4A90E2" />
      <stop offset="100%" stop-color="#357ABD" />
    </linearGradient>
    
    <radialGradient id="halo" cx="50%" cy="50%" r="50%">
      <stop offset="0%" stop-color="#FFD700" />
      <stop offset="100%" stop-color="#FFA500" />
    </radialGradient>
  </defs>
  
  <!-- Efeito de luz divina -->
  <circle cx="100" cy="100" r="95" fill="url(#shine)" opacity="0.2">
    <animate attributeName="opacity" values="0.2;0.4;0.2" dur="3s" repeatCount="indefinite" />
  </circle>
  
  <defs>
    <radialGradient id="shine" cx="30%" cy="30%" r="70%">
      <stop offset="0%" stop-color="white" />
      <stop offset="100%" stop-color="transparent" />
    </radialGradient>
  </defs>
  
  <!-- Raios de luz -->
  <path d="M85 80 L70 70" stroke="#FFD700" stroke-width="1" opacity="0.6">
    <animate attributeName="opacity" values="0.6;0.2;0.6" dur="2s" repeatCount="indefinite" />
  </path>
  <path d="M115 80 L130 70" stroke="#FFD700" stroke-width="1" opacity="0.6">
    <animate attributeName="opacity" values="0.6;0.2;0.6" dur="2.5s" repeatCount="indefinite" />
  </path>
</svg> 