<?xml version="1.0" encoding="UTF-8"?>
<svg width="200" height="200" viewBox="0 0 200 200" fill="none" xmlns="http://www.w3.org/2000/svg">
  <!-- Fundo com gradiente marítimo -->
  <circle cx="100" cy="100" r="95" fill="url(#gradient)" />
  
  <!-- Rosto de Pedro -->
  <path d="M100 50 C 70 50, 60 100, 100 120 C 140 100, 130 50, 100 50" fill="#FFE4C4" />
  
  <!-- Barba curta -->
  <path d="M80 90 C 85 85, 115 85, 120 90 C 115 95, 85 95, 80 90" fill="#2F1B1B">
    <animate attributeName="d" 
             values="M80 90 C 85 85, 115 85, 120 90 C 115 95, 85 95, 80 90;
                     M80 90 C 85 88, 115 88, 120 90 C 115 92, 85 92, 80 90;
                     M80 90 C 85 85, 115 85, 120 90 C 115 95, 85 95, 80 90"
             dur="4s"
             repeatCount="indefinite" />
  </path>
  
  <!-- Cabelo curto e ondulado -->
  <path d="M100 40 C 60 40, 40 70, 60 100 C 80 120, 120 120, 140 100 C 160 70, 140 40, 100 40" fill="#2F1B1B">
    <animate attributeName="d" 
             values="M100 40 C 60 40, 40 70, 60 100 C 80 120, 120 120, 140 100 C 160 70, 140 40, 100 40;
                     M100 40 C 65 40, 45 70, 65 100 C 85 120, 115 120, 135 100 C 155 70, 135 40, 100 40;
                     M100 40 C 60 40, 40 70, 60 100 C 80 120, 120 120, 140 100 C 160 70, 140 40, 100 40"
             dur="5s"
             repeatCount="indefinite" />
  </path>
  
  <!-- Olhos determinados -->
  <circle cx="85" cy="80" r="3" fill="#4A4A4A">
    <animate attributeName="r" values="3;3.5;3" dur="3s" repeatCount="indefinite" />
  </circle>
  <circle cx="115" cy="80" r="3" fill="#4A4A4A">
    <animate attributeName="r" values="3;3.5;3" dur="3s" repeatCount="indefinite" />
  </circle>
  
  <!-- Brilho nos olhos -->
  <circle cx="86" cy="79" r="1" fill="white" opacity="0.8">
    <animate attributeName="opacity" values="0.8;1;0.8" dur="2s" repeatCount="indefinite" />
  </circle>
  <circle cx="116" cy="79" r="1" fill="white" opacity="0.8">
    <animate attributeName="opacity" values="0.8;1;0.8" dur="2s" repeatCount="indefinite" />
  </circle>
  
  <!-- Sobrancelhas expressivas -->
  <path d="M75 75 C 80 73, 90 73, 95 75" stroke="#2F1B1B" stroke-width="2" fill="none" />
  <path d="M105 75 C 110 73, 120 73, 125 75" stroke="#2F1B1B" stroke-width="2" fill="none" />
  
  <!-- Cicatriz de pescador -->
  <path d="M90 85 L 110 85" stroke="#8B4513" stroke-width="1.5" fill="none" />
  
  <!-- Boca determinada -->
  <path d="M90 95 C 100 100, 110 100, 120 95" stroke="#2F1B1B" stroke-width="2" fill="none" />
  
  <!-- Cajado -->
  <path d="M60 120 C 60 160, 80 160, 80 120" stroke="#8B4513" stroke-width="4" fill="none">
    <animate attributeName="d" 
             values="M60 120 C 60 160, 80 160, 80 120;
                     M60 120 C 60 155, 80 155, 80 120;
                     M60 120 C 60 160, 80 160, 80 120"
             dur="3s"
             repeatCount="indefinite" />
  </path>
  
  <!-- Gradientes e definições -->
  <defs>
    <linearGradient id="gradient" x1="0" y1="0" x2="200" y2="200" gradientUnits="userSpaceOnUse">
      <stop offset="0%" stop-color="#87CEEB" />
      <stop offset="100%" stop-color="#4682B4" />
    </linearGradient>
  </defs>
  
  <!-- Efeito de ondas -->
  <circle cx="100" cy="100" r="95" fill="url(#waves)" opacity="0.2">
    <animate attributeName="opacity" values="0.2;0.4;0.2" dur="3s" repeatCount="indefinite" />
  </circle>
  
  <defs>
    <radialGradient id="waves" cx="30%" cy="30%" r="70%">
      <stop offset="0%" stop-color="white" />
      <stop offset="100%" stop-color="transparent" />
    </radialGradient>
  </defs>
  
  <!-- Reflexo de luz -->
  <circle cx="100" cy="100" r="95" fill="url(#shine)" opacity="0.2">
    <animate attributeName="opacity" values="0.2;0.4;0.2" dur="3s" repeatCount="indefinite" />
  </circle>
  
  <defs>
    <radialGradient id="shine" cx="30%" cy="30%" r="70%">
      <stop offset="0%" stop-color="white" />
      <stop offset="100%" stop-color="transparent" />
    </radialGradient>
  </defs>
</svg> 